{
	"asset":{
		"generator":"Khronos glTF Blender I/O v3.5.30",
		"version":"2.0"
	},
	"extensionsUsed":[
		"KHR_materials_clearcoat"
	],
	"scene":0,
	"scenes":[
		{
			"name":"Scene",
			"nodes":[
				6
			]
		}
	],
	"nodes":[
		{
			"mesh":0,
			"name":"Object_2"
		},
		{
			"mesh":1,
			"name":"Object_3"
		},
		{
			"mesh":2,
			"name":"Object_4"
		},
		{
			"mesh":3,
			"name":"Object_5"
		},
		{
			"mesh":4,
			"name":"Object_6"
		},
		{
			"children":[
				0,
				1,
				2,
				3,
				4
			],
			"name":"cassete.obj.cleaner.materialmerger.gles"
		},
		{
			"children":[
				5
			],
			"name":"Sketchfab_model",
			"rotation":[
				-0.70710688829422,
				0,
				0,
				0.7071066498756409
			]
		}
	],
	"materials":[
		{
			"doubleSided":true,
			"emissiveFactor":[
				1,
				1,
				0
			],
			"name":"AMARILLO",
			"pbrMetallicRoughness":{
				"baseColorFactor":[
					0.800000011920929,
					0.800000011920929,
					0.800000011920929,
					1
				],
				"metallicFactor":0,
				"roughnessFactor":0.788031816482544
			}
		},
		{
			"doubleSided":true,
			"emissiveFactor":[
				1,
				0,
				1
			],
			"name":"MORADO",
			"pbrMetallicRoughness":{
				"baseColorFactor":[
					0.800000011920929,
					0.800000011920929,
					0.800000011920929,
					1
				],
				"metallicFactor":0,
				"roughnessFactor":0.788031816482544
			}
		},
		{
			"doubleSided":true,
			"emissiveFactor":[
				1,
				1,
				0.06679517030715942
			],
			"name":"naranja",
			"pbrMetallicRoughness":{
				"baseColorFactor":[
					0.800000011920929,
					0.800000011920929,
					0.800000011920929,
					1
				],
				"metallicFactor":0,
				"roughnessFactor":0.7794037461280823
			}
		},
		{
			"doubleSided":true,
			"emissiveFactor":[
				1,
				0,
				0
			],
			"name":"rojo",
			"pbrMetallicRoughness":{
				"baseColorFactor":[
					0.800000011920929,
					0.800000011920929,
					0.800000011920929,
					1
				],
				"metallicFactor":0,
				"roughnessFactor":0.08075229823589325
			}
		},
		{
			"doubleSided":true,
			"emissiveFactor":[
				1,
				1,
				0.035382770001888275
			],
			"extensions":{
				"KHR_materials_clearcoat":{
					"clearcoatFactor":1,
					"clearcoatRoughnessFactor":0.03999999910593033
				}
			},
			"name":"verde",
			"pbrMetallicRoughness":{
				"baseColorFactor":[
					0.800000011920929,
					0.800000011920929,
					0.800000011920929,
					1
				],
				"metallicFactor":0,
				"roughnessFactor":0
			}
		}
	],
	"meshes":[
		{
			"name":"Object_0",
			"primitives":[
				{
					"attributes":{
						"POSITION":0,
						"TEXCOORD_0":1,
						"NORMAL":2
					},
					"indices":3,
					"material":0
				}
			]
		},
		{
			"name":"Object_1",
			"primitives":[
				{
					"attributes":{
						"POSITION":4,
						"TEXCOORD_0":5,
						"NORMAL":6
					},
					"indices":7,
					"material":1
				}
			]
		},
		{
			"name":"Object_2",
			"primitives":[
				{
					"attributes":{
						"POSITION":8,
						"TEXCOORD_0":9,
						"NORMAL":10
					},
					"indices":11,
					"material":2
				}
			]
		},
		{
			"name":"Object_3",
			"primitives":[
				{
					"attributes":{
						"POSITION":12,
						"TEXCOORD_0":13,
						"NORMAL":14
					},
					"indices":15,
					"material":3
				}
			]
		},
		{
			"name":"Object_4",
			"primitives":[
				{
					"attributes":{
						"POSITION":16,
						"TEXCOORD_0":17,
						"NORMAL":18
					},
					"indices":19,
					"material":4
				}
			]
		}
	],
	"accessors":[
		{
			"bufferView":0,
			"componentType":5126,
			"count":2806,
			"max":[
				3.7259249687194824,
				0.060384999960660934,
				6.85331916809082
			],
			"min":[
				-3.7235350608825684,
				0,
				2.0365219116210938
			],
			"type":"VEC3"
		},
		{
			"bufferView":1,
			"componentType":5126,
			"count":2806,
			"type":"VEC2"
		},
		{
			"bufferView":2,
			"componentType":5126,
			"count":2806,
			"type":"VEC3"
		},
		{
			"bufferView":3,
			"componentType":5123,
			"count":5418,
			"type":"SCALAR"
		},
		{
			"bufferView":4,
			"componentType":5126,
			"count":443,
			"max":[
				2.777803897857666,
				0.060384999960660934,
				5.940400123596191
			],
			"min":[
				-2.783276081085205,
				0,
				4.128631114959717
			],
			"type":"VEC3"
		},
		{
			"bufferView":5,
			"componentType":5126,
			"count":443,
			"type":"VEC2"
		},
		{
			"bufferView":6,
			"componentType":5126,
			"count":443,
			"type":"VEC3"
		},
		{
			"bufferView":7,
			"componentType":5123,
			"count":804,
			"type":"SCALAR"
		},
		{
			"bufferView":8,
			"componentType":5126,
			"count":1481,
			"max":[
				3.421900987625122,
				0.060384999960660934,
				6.568984031677246
			],
			"min":[
				-3.4155869483947754,
				-0.0015439999988302588,
				2.1731979846954346
			],
			"type":"VEC3"
		},
		{
			"bufferView":9,
			"componentType":5126,
			"count":1481,
			"type":"VEC2"
		},
		{
			"bufferView":10,
			"componentType":5126,
			"count":1481,
			"type":"VEC3"
		},
		{
			"bufferView":11,
			"componentType":5123,
			"count":2640,
			"type":"SCALAR"
		},
		{
			"bufferView":12,
			"componentType":5126,
			"count":281,
			"max":[
				2.5112481117248535,
				0.060384999960660934,
				3.223328113555908
			],
			"min":[
				-2.5112481117248535,
				0,
				1.9336919784545898
			],
			"type":"VEC3"
		},
		{
			"bufferView":13,
			"componentType":5126,
			"count":281,
			"type":"VEC2"
		},
		{
			"bufferView":14,
			"componentType":5126,
			"count":281,
			"type":"VEC3"
		},
		{
			"bufferView":15,
			"componentType":5123,
			"count":552,
			"type":"SCALAR"
		},
		{
			"bufferView":16,
			"componentType":5126,
			"count":333,
			"max":[
				3.195380926132202,
				0.060384999960660934,
				6.255486965179443
			],
			"min":[
				-3.1515629291534424,
				0,
				3.3269400596618652
			],
			"type":"VEC3"
		},
		{
			"bufferView":17,
			"componentType":5126,
			"count":333,
			"type":"VEC2"
		},
		{
			"bufferView":18,
			"componentType":5126,
			"count":333,
			"type":"VEC3"
		},
		{
			"bufferView":19,
			"componentType":5123,
			"count":618,
			"type":"SCALAR"
		}
	],
	"bufferViews":[
		{
			"buffer":0,
			"byteLength":33672,
			"byteOffset":0,
			"target":34962
		},
		{
			"buffer":0,
			"byteLength":22448,
			"byteOffset":33672,
			"target":34962
		},
		{
			"buffer":0,
			"byteLength":33672,
			"byteOffset":56120,
			"target":34962
		},
		{
			"buffer":0,
			"byteLength":10836,
			"byteOffset":89792,
			"target":34963
		},
		{
			"buffer":0,
			"byteLength":5316,
			"byteOffset":100628,
			"target":34962
		},
		{
			"buffer":0,
			"byteLength":3544,
			"byteOffset":105944,
			"target":34962
		},
		{
			"buffer":0,
			"byteLength":5316,
			"byteOffset":109488,
			"target":34962
		},
		{
			"buffer":0,
			"byteLength":1608,
			"byteOffset":114804,
			"target":34963
		},
		{
			"buffer":0,
			"byteLength":17772,
			"byteOffset":116412,
			"target":34962
		},
		{
			"buffer":0,
			"byteLength":11848,
			"byteOffset":134184,
			"target":34962
		},
		{
			"buffer":0,
			"byteLength":17772,
			"byteOffset":146032,
			"target":34962
		},
		{
			"buffer":0,
			"byteLength":5280,
			"byteOffset":163804,
			"target":34963
		},
		{
			"buffer":0,
			"byteLength":3372,
			"byteOffset":169084,
			"target":34962
		},
		{
			"buffer":0,
			"byteLength":2248,
			"byteOffset":172456,
			"target":34962
		},
		{
			"buffer":0,
			"byteLength":3372,
			"byteOffset":174704,
			"target":34962
		},
		{
			"buffer":0,
			"byteLength":1104,
			"byteOffset":178076,
			"target":34963
		},
		{
			"buffer":0,
			"byteLength":3996,
			"byteOffset":179180,
			"target":34962
		},
		{
			"buffer":0,
			"byteLength":2664,
			"byteOffset":183176,
			"target":34962
		},
		{
			"buffer":0,
			"byteLength":3996,
			"byteOffset":185840,
			"target":34962
		},
		{
			"buffer":0,
			"byteLength":1236,
			"byteOffset":189836,
			"target":34963
		}
	],
	"buffers":[
		{
			"byteLength":191072,
			"uri":"data:application/octet-stream;base64,"
		}
	]
}
