<svg xmlns="http://www.w3.org/2000/svg"  viewBox="0 0 64 64" width="60px" height="60px"><path fill="#F6F0DA" d="M33.378,38.45L55.299,17.6C56.34,19.591,57,22.025,57,25c0,8.41-5.176,14.873-9.685,19.563C42.368,49.711,34.328,56,32,56	s-10.368-6.289-15.315-11.437C12.176,39.873,7,33.41,7,25c0-11.333,9.433-15,14-15c5.521,0,9.068,3.023,11,5.389	C33.932,13.023,37.479,10,43,10c2.609,0,6.8,1.205,9.919,4.342L32.036,34.208l-7.622-7.622c-0.781-0.781-2.047-0.781-2.828,0	c-0.781,0.781-0.781,2.047,0,2.828l9,9C30.976,38.804,31.487,39,32,39C32.495,39,32.991,38.817,33.378,38.45z"/></svg>