<svg xmlns="http://www.w3.org/2000/svg"  viewBox="0 0 30 30" width="60px" height="60px"><path fill="#F6F0DA" d="M 8.7871094 3 C 8.3231094 3 7.9214531 3.3155781 7.8144531 3.7675781 C 7.3194531 5.8635781 6 11.751 6 15 C 6 18.602735 9.5004129 21.565736 14 21.953125 L 14 24.195312 L 9.8242188 25.013672 A 1.0001 1.0001 0 0 0 9.7675781 25.025391 L 9.7382812 25.03125 L 9.7382812 25.033203 A 1.0001 1.0001 0 0 0 10 27 L 14.832031 27 A 1.0001 1.0001 0 0 0 15.158203 27 L 20 27 A 1.0001 1.0001 0 0 0 20.261719 25.03125 L 20.234375 25.025391 A 1.0001 1.0001 0 0 0 20.154297 25.009766 L 16 24.195312 L 16 21.953125 C 20.499587 21.565736 24 18.602735 24 15 C 24 11.751 22.680547 5.8635781 22.185547 3.7675781 C 22.078547 3.3155781 21.676891 3 21.212891 3 L 8.7871094 3 z M 9.5820312 5 L 20.417969 5 C 20.642969 5.984 20.959953 7.442 21.251953 9 L 11.552734 9 C 11.074734 9 10.662266 9.3366406 10.572266 9.8066406 C 10.355266 10.939641 10 13.08 10 15 C 10 15.54 10.103094 16.132313 10.246094 16.695312 C 10.445094 17.477313 9.4455469 17.972656 8.9355469 17.347656 C 8.4115469 16.705656 8 15.911 8 15 C 8 12.279 9.0520312 7.325 9.5820312 5 z"/></svg>