<svg xmlns="http://www.w3.org/2000/svg"  viewBox="0 0 30 30" width="60px" height="60px"><path fill="#F6F0DA" d="M 10.5 3 C 9.4363248 3 8.5805158 3.5699907 7.9394531 4.3242188 C 7.4651683 4.1336088 6.9509193 3.8292465 6.5800781 3.84375 C 5.9624831 3.867904 5.46875 4.1523438 5.46875 4.1523438 A 1.0003737 1.0003737 0 1 0 6.53125 5.8476562 C 6.53125 5.8476562 6.489548 5.8483936 6.6582031 5.8417969 C 6.8268581 5.8351969 7.1291858 5.8567939 7.640625 6.2421875 A 1.0001 1.0001 0 0 0 9.1464844 5.8671875 C 9.3874593 5.3538332 9.8925442 5 10.5 5 C 10.88307 5 11.218947 5.1440064 11.494141 5.390625 A 1.0001 1.0001 0 0 0 12.777344 5.4335938 C 13.127576 5.159738 13.54059 5 14 5 C 14.650934 5 15.212773 5.3098291 15.583984 5.796875 A 1.0001 1.0001 0 0 0 17.230469 5.7167969 C 17.497362 5.2849153 17.956209 5 18.5 5 C 19.010853 5 19.447364 5.2502942 19.720703 5.6367188 A 1.0001 1.0001 0 0 0 21.068359 5.90625 C 21.496607 5.6375547 21.974609 5.8828125 21.974609 5.8828125 A 1.0001 1.0001 0 1 0 22.914062 4.1171875 C 22.914062 4.1171875 21.943224 3.8285121 20.861328 4.0488281 C 20.232929 3.4431217 19.438527 3 18.5 3 C 17.653359 3 16.942948 3.3782684 16.337891 3.8828125 C 15.671157 3.3768345 14.901435 3 14 3 C 13.301277 3 12.727221 3.3286372 12.162109 3.6425781 C 11.648566 3.340907 11.141271 3 10.5 3 z M 6 8 C 5.448 8 5 8.448 5 9 L 5 22 C 5 24.2 6.8 26 9 26 L 19 26 C 21.2 26 23 24.2 23 22 L 23 21 C 25.197334 21 27 19.197334 27 17 L 27 12 C 27 10.906937 26.093063 10 25 10 L 23 10 L 23 9 C 23 8.448 22.552 8 22 8 L 21 8 C 19.895 8 19 8.895 19 10 L 19 13 C 19 13.552 18.552 14 18 14 C 17.448 14 17 13.552 17 13 L 17 9 C 17 8.448 16.552 8 16 8 C 15.448 8 15 8.448 15 9 L 15 11 C 15 11.552 14.552 12 14 12 C 13.448 12 13 11.552 13 11 L 13 10 C 13 8.895 12.105 8 11 8 L 6 8 z M 8 11 C 8.552 11 9 11.448 9 12 L 9 21 C 9 21.552 8.552 22 8 22 C 7.448 22 7 21.552 7 21 L 7 12 C 7 11.448 7.448 11 8 11 z M 23 12 L 25 12 L 25 17 C 25 18.116666 24.116666 19 23 19 L 23 12 z"/></svg>